# xmcd
#
# Track frame offsets:
#	150
#	14614
#	15184
#	28835
#	43378
#	56187
#	56793
#	70692
#	85998
#	98746
#	112360
#	112693
#	124712
#	139303
#	151409
#	169695
#	186487
#	186943
#
# Disc length: 2697 seconds
#
# Revision: 0
# Processed by: cddbd v1.5.2PL0 Copyright (c) Steve Scherf et al.
# Submitted via: audiograbber 1.83.01
#
DISCID=030a8712
DTITLE=Hillcrest  - Hillcrest Pure Country 82
DYEAR=2017
DGENRE=Country
TTITLE0=Just Call Me Lonesome -Graeme Clarke
TTITLE1=Lonnie ID
TTITLE2=Break My Heart -Lonnie Bartmess
TTITLE3=Eventually -Laural Mendes
TTITLE4=Hey Ho Away We Go -Dave Sheriff and The Britpickers
TTITLE5=Clelia ID
TTITLE6=Bind My Love -Cecilia Adams
TTITLE7=No One Will Know But Me -Roy Head
TTITLE8=You Lied To Me -Andy Martin
TTITLE9=What I'm Looking For -Bonita Mercer
TTITLE10=David ID
TTITLE11=Bless This House -David McLachlan
TTITLE12=How Can I Believe In You -Don Allen
TTITLE13=I Can't Help It -Kylie Adams
TTITLE14=Little Hearts -Otis C. Truax
TTITLE15=My Heart Is Yours -Chloe Styler
TTITLE16=Brian ID
TTITLE17=The Way It Is -Brian Dolph
EXTD=
EXTT0=
EXTT1=
EXTT2=
EXTT3=
EXTT4=
EXTT5=
EXTT6=
EXTT7=
EXTT8=
EXTT9=
EXTT10=
EXTT11=
EXTT12=
EXTT13=
EXTT14=
EXTT15=
EXTT16=
EXTT17=
PLAYORDER=
